# xmcd
#
# Track frame offsets:
#	150
#	16204
#	30747
#	42328
#	49961
#	63692
#	83577
#	93002
#	103678
#	129774
#	143939
#	155057
#	167155
#	180279
#	192527
#	203497
#	212054
#	222838
#	235736
#
# Disc length: 3285 seconds
#
# Revision: 0
# Processed by: cddbd v1.4PL0 Copyright (c) Steve Scherf et al.
# Submitted via: EasyCDDAExtractor 4.6.0.1
#
DISCID=020cd313
DTITLE=John Mayall - The Sadows
DYEAR=1900
DGENRE=blues
TTITLE0=All Your Love
TTITLE1=Hideaway
TTITLE2=Little Girl
TTITLE3=Another Man
TTITLE4=Double Crossin Time
TTITLE5=What'd Say
TTITLE6=Key To Love
TTITLE7=Parchman Farm
TTITLE8=Have You Meard
TTITLE9=Ramblin'on My Mind
TTITLE10=Steppin Out
TTITLE11=It Ain't Rich
TTITLE12=Apache
TTITLE13=The Stranger
TTITLE14=The Frightened City
TTITLE15=Kon Tiki
TTITLE16=The Savage
TTITLE17=The Breeze And I
TTITLE18=Dance On
EXTD=
EXTT0=
EXTT1=
EXTT2=
EXTT3=
EXTT4=
EXTT5=
EXTT6=
EXTT7=
EXTT8=
EXTT9=
EXTT10=
EXTT11=
EXTT12=
EXTT13=
EXTT14=
EXTT15=
EXTT16=
EXTT17=
EXTT18=
PLAYORDER=
